<?xml version="1.0" encoding="utf-8"?>
<!-- Generator: Adobe Illustrator 16.0.0, SVG Export Plug-In . SVG Version: 6.00 Build 0)  -->
<!DOCTYPE svg PUBLIC "-//W3C//DTD SVG 1.1//EN" "http://www.w3.org/Graphics/SVG/1.1/DTD/svg11.dtd">
<svg version="1.1" id="图层_1" xmlns="http://www.w3.org/2000/svg" xmlns:xlink="http://www.w3.org/1999/xlink" x="0px" y="0px"
	 width="939px" height="243px" viewBox="0 0 1878 486" style="enable-background:new 0 0 1878 486;" xml:space="preserve">
<line style="fill:none;stroke:#FF0000;stroke-width:16;stroke-linecap:round;stroke-miterlimit:10;" x1="410.5" y1="115.2" x2="269.1" y2="47.1"/>
<line style="fill:none;stroke:#FFFF00;stroke-width:16;stroke-linecap:round;stroke-miterlimit:10;" x1="460.8" y1="304.5" x2="360.1" y2="430.7"/>
<line style="fill:none;stroke:#00FFFF;stroke-width:16;stroke-linecap:round;stroke-miterlimit:10;" x1="161.9" y1="430.6" x2="61.2" y2="304.6"/>
<line style="fill:none;stroke:#8B00FF;stroke-width:16;stroke-linecap:round;stroke-miterlimit:10;" x1="247.1" y1="47.1" x2="105.6" y2="115.1"/>
<line style="fill:none;stroke:#0000FF;stroke-width:16;stroke-linecap:round;stroke-miterlimit:10;" x1="92.4" y1="131.6" x2="57.1" y2="286.3"/>
<line style="fill:none;stroke:#00FF00;stroke-width:16;stroke-linecap:round;stroke-miterlimit:10;" x1="339" y1="438" x2="177" y2="438"/>
<line style="fill:#FF7F00;stroke:#FF7F00;stroke-width:16;stroke-linecap:round;stroke-miterlimit:10;" x1="458.9" y1="286.3" x2="423.6" y2="131.6"/>
<path style="fill:none;stroke:#000000;stroke-width:16;stroke-miterlimit:10;" d="M243.9,47.5"/>
<g>
	<path style="fill:#E5E5E5;" d="M203,208.6c1.9-12.8,3.2-26.6,4.5-39.7h113.3l2.2,3.8c-31,61.4-58.6,125.4-86.4,188.2l-19.2,2.6
		l-2.2-2.9c36.5-57.6,66.2-116.5,92.2-176h-68.2c-21.8,0-23.4,2.2-31,24H203z"/>
	<path style="fill:#E5E5E5;" d="M785.3,332.5c0,9.4,0.4,18.9,1.3,28.5l1.6,23c0,3-0.8,4.5-2.4,4.5c-1.6,0-3.8-0.8-6.7-2.2
		c-2.9-1.5-7.6-3-14.2-4.5c-15.6-3.6-31.8-10.8-48.6-21.4c-7.5-4.7-12.7-7.8-15.7-9.4c-3-1.6-4.5-3-4.5-4.2c0-1.2,1.8-1.5,5.4-1.1
		c22.4,3.6,37.1,5.4,44,5.4c6.9,0,11.3-0.9,13-2.6c1.7-1.7,2.6-7.2,2.6-16.5s-0.7-26.7-2.1-52.2c-1.4-25.5-2.9-45.1-4.5-58.7
		c-1.6-13.6-3.4-22.6-5.3-26.9c-1.9-4.3-4.6-7.3-8-9c-3.4-1.7-8.5-2.6-15.4-2.6c-6.8,0-16.9,1.1-30.1,3.4
		c-13.2,2.2-26.3,5.3-39.2,9.1c-12.9,3.8-21.3,6.8-25.1,9c-3.8,2.1-6.6,4.9-8.3,8.3c-1.7,3.4-2.6,6.7-2.6,9.9c0,1.1,0.3,2,0.8,2.9
		c0.5,0.9,3.3,3.3,8.3,7.2c5,3.9,9.5,7.2,13.6,9.8l4.2,2.9c0.6,0.4,1.3,0.6,1.9,0.6c0.6,0,1.2-0.2,1.6-0.6c0.4-0.4,1.2-2.6,2.2-6.6
		c1.1-3.9,1.7-7,1.9-9.1c0.2-2.1,0.3-5.2,0.3-9.1c0-3.9,1-5.9,3-5.9c2,0,7.1,1,15.2,2.9c8.1,1.9,12.7,3.7,13.9,5.3
		c1.2,1.6,1.6,3.2,1.3,4.8c-0.3,1.6-0.5,2.9-0.5,3.8s1.2,2.1,3.5,3.5c2.3,1.4,5.5,3.5,9.6,6.4c4,2.9,6.6,4.3,7.5,4.3
		c1,0,1.6-0.3,1.9-1c0.3-0.6,1-3.6,1.9-9c1-5.3,1.4-9.5,1.4-12.5l-0.6-6.7c0-2.1,1-3.2,3-3.2c2,0,5.8,0.9,11.2,2.7
		c5.4,1.8,9.1,3.4,11,4.6s2.9,2.6,2.9,3.8c0,1.3-0.7,3.7-2.1,7.2c-1.4,3.5-3.3,9.5-5.8,17.9c-2.5,8.4-3.7,12.9-3.7,13.3
		c0,1.5,1.2,3.6,3.7,6.2c2.4,2.7,5.4,6.5,9,11.4c3.5,4.9,7,9.3,10.4,13.1c1.5,1.9,2.2,3.7,2.2,5.3c0,1.6-2.2,5.2-6.6,10.9
		c-4.4,5.7-8.2,8.5-11.5,8.5c-3.3,0-5.4-1.8-6.4-5.3s-3-7.9-6.2-13.3c-3.2-5.3-5.4-8-6.6-8c-1.2,0-2.1,0.5-2.7,1.6
		c-4.9,7.9-8.6,13.2-11.2,16c-2.6,2.8-7.3,4.2-14.1,4.2c-2.8,0-4.2-0.6-4.2-1.8c0-1.2,1.1-3.4,3.4-6.6s5.2-9.1,8.8-17.8
		c3.6-8.6,5.4-14,5.4-16.2c0-2.1-2.1-4.6-6.2-7.5c-4.2-2.9-9.7-7.5-16.5-13.9c-0.6-0.6-1.5-1-2.6-1c-1.1,0-2.7,2-5,5.9
		c-2.2,3.9-3.4,6.5-3.4,7.7c0,1.2,0.4,2.2,1.3,3c8.1,9,12.2,18.4,12.2,28.2c0,3.6-1.4,7.1-4.3,10.4c-2.9,3.3-5.3,5-7.2,5
		c-1.9,0-4.1-1.8-6.6-5.4c-2.5-3.6-5.1-7.9-7.8-12.8c-0.6-1.1-1.5-1.6-2.7-1.6c-1.2,0-2.1,0.6-2.7,1.9c-5.8,10-10.1,16.2-13,18.6
		c-2.9,2.4-6,3.5-9.4,3.5c-3.4,0-6.3-0.2-8.6-0.6l-6.1-1c-0.9,0-1.6,0.4-2.2,1.3c-0.6,0.9-1.3,2.6-1.9,5.1
		c-0.6,2.6-1.3,6.7-2.1,12.3c-0.8,5.7-1.1,10.4-1.1,14.2v9.6c0,3.4-1.5,5.6-4.6,6.4c-3.1,0.8-5.4,1.3-7,1.3c-1.6,0-2.5-1.2-2.7-3.7
		c-0.2-2.4-0.3-13.9-0.3-34.2c0-20.4,0.5-41.5,1.6-63.5l2.6-55l-0.3-7c0-3.4,1.3-5.7,3.8-6.9c2.6-1.2,5.8-1.8,9.8-1.8
		c3.9,0,11.1-1.7,21.4-5.1c10.3-3.4,26.6-7,48.6-10.7c22.1-3.7,38.8-5.6,50.1-5.6c11.3,0,22.6,1.3,33.8,4
		c11.2,2.7,18.1,4.4,20.6,5.3c2.6,0.9,3.8,2.3,3.8,4.3c0,2-0.4,4-1.3,5.9c-2.8,5.5-4.2,29.7-4.2,72.3c0,16.2,0.4,28.8,1.3,37.6
		c0.8,8.9,1.3,16.1,1.3,21.6L785.3,332.5z M615.4,305.3c2.3,0,5-1.3,7.8-4c2.9-2.7,6.5-8.2,10.9-16.6c4.4-8.4,6.6-13.5,6.6-15.2
		c0-1.7-3-5.6-9-11.7c-6-6.1-9.7-9.1-11.2-9.1c-0.6,0-1.2,0.3-1.8,0.8c-0.5,0.5-0.9,1-1,1.3c-0.1,0.3-0.2,1.1-0.2,2.4l-1.3,15.7
		c-0.9,9-1.6,16.5-2.2,22.7c-0.6,6.2-1,10-1,11.5C613.2,304.5,613.9,305.3,615.4,305.3z"/>
	<path style="fill:#E5E5E5;" d="M986.3,275.2c1.1,0,2.6,0.4,4.5,1.1c1.9,0.8,2.9,1.8,2.9,3c0,1.3-1.4,3.3-4.2,6.1
		c-10.9,10.2-21,20.8-30.2,31.7c-9.3,10.9-18.3,19.4-27,25.6c-7.7,5.5-12.8,10.2-15.4,14.1c-1.3,1.7-2.9,2.6-4.8,2.6
		c-1.9,0-6.5-2.3-13.8-7c-7.3-4.7-10.9-8.2-10.9-10.4s1.4-4.1,4.2-5.6c9.4-5.8,17.6-11.3,24.6-16.6c7-5.3,11.3-9,12.6-10.9
		c1.4-1.9,2.6-5.4,3.5-10.6c1-5.1,1.4-10.4,1.4-15.8c0-5.4-0.8-8.2-2.4-8.2c-1.6,0-4.1,0.8-7.5,2.4c-3.4,1.6-6.2,3.1-8.5,4.5
		c-2.2,1.4-4,2.1-5.3,2.1c-1.3,0-2.2-0.7-2.9-2.2c-0.6-1.5-1.9-5.7-3.7-12.6c-1.8-6.9-2.7-11.7-2.7-14.2c0-4.3,2-6.4,5.9-6.4
		c3.9,0,9.5-0.9,16.8-2.7c7.3-1.8,11.5-3.5,12.8-5.1s1.9-12.1,1.9-31.5l-0.3-23c0-7.5,0.4-12.9,1.1-16.3c0.7-3.4,1.5-5.4,2.4-6.1
		c0.8-0.6,3-1,6.4-1c7.5,0,11.2,1.4,11.2,4.2c0,0.9-0.3,1.9-1,3.2c-2.1,5.1-3.2,11.1-3.2,17.9c0,6.8,0.1,12.8,0.3,17.9l0.3,15.7
		c0.2,5.3,0.4,8.3,0.6,9c0.2,0.6,0.6,1.2,1.1,1.8c0.5,0.5,1.2,0.8,2.1,0.8c0.9,0,1.9-0.3,3.2-1c1.3-0.6,2.7-1,4.2-1
		c3.8,0,6.5,2.6,8,7.7c1.5,5.1,2.2,9.4,2.2,12.8c0,3.4-1.3,6.5-4,9.1c-2.7,2.7-6.3,5.3-10.9,7.8c-4.6,2.6-7.1,4.6-7.7,6.1
		c-0.5,1.5-0.8,4.6-0.8,9.4c0,4.8,0.5,7.2,1.4,7.2s2.2-0.4,3.7-1.3C974.6,279.9,983.7,275.2,986.3,275.2z M1126.8,325.8
		c2.3,0,4.3,1.1,5.8,3.2c5.5,8.3,9.9,14.1,13.1,17.4c3.2,3.3,4.8,7,4.8,11.2s-0.3,6.8-0.8,8c-0.5,1.2-1.4,1.8-2.7,1.8
		c-1.3,0-5-1.3-11.2-3.8c-6.2-2.6-12.1-4.5-17.6-5.8c-5.5-1.3-14-1.9-25.3-1.9c-36.3,0-61,1.9-74.1,5.6c-13.1,3.7-25.7,5.6-37.6,5.6
		c-4.3,0-7.4,0.3-9.3,1s-4.5,2-7.7,4.2c-1.9,1.1-3.7,1.6-5.4,1.6c-1.7,0-3.7-3.2-5.9-9.6c-2.2-6.4-3.4-10.3-3.4-11.8
		c0-1.5,0.5-2.5,1.4-2.9c1-0.4,3.5-0.6,7.5-0.6c4,0,9.7-1,16.8-3c7.1-2,11.7-3.6,13.8-4.8c2-1.2,3.4-2.7,4.2-4.5
		c0.7-1.8,1.5-6.8,2.4-14.9c0.8-8.1,1.3-15,1.3-20.8c0-5.8-0.2-10.6-0.5-14.6c-0.3-3.9-0.5-9.2-0.5-15.7c0-6.5,0.3-13,0.8-19.4
		c0.5-6.4,0.8-11.5,0.8-15.4v-10.2c0-3.2,1.2-4.8,3.7-4.8c2.5,0,6.9,0.6,13.4,1.9c6.5,1.3,9.8,3.2,9.8,5.8c0,0.6-0.1,1.4-0.3,2.2
		c-1.3,3.8-1.9,9.8-1.9,17.9c0,8.1-0.4,14.7-1.1,19.7c-0.8,5-1.1,9.1-1.1,12.3c0,3.2,0.6,7.3,1.9,12.2c1.3,4.9,1.9,11.5,1.9,19.7
		c0,8.2,0.3,13,1,14.4c0.6,1.4,2.2,2.1,4.6,2.1c2.5,0,5.1-0.6,7.8-1.9c2.8-1.3,4.6-2.9,5.6-4.8s1.7-6.3,2.2-13.3
		c0.5-6.9,0.8-14.2,0.8-21.9l-0.6-35.5l1-37.8l-1-24.3c0-6,0.3-12.3,1-19c0.6-6.7,1-12.3,1-16.8s0.3-7.1,0.8-8
		c0.5-0.9,1.7-1.3,3.5-1.3c1.8,0,7.3,0.9,16.3,2.7c9.1,1.8,13.6,3.7,13.6,5.6c0,0.6-0.5,1.6-1.6,2.9c-4.3,5.3-6.4,17.9-6.4,37.8
		c0,19.8,0.2,32.3,0.6,37.4c0.4,5.1,1.6,7.7,3.5,7.7s6.9-1.2,15-3.7c8.1-2.5,13-4.4,14.7-5.8c1.7-1.4,3.3-2.1,4.8-2.1
		c1.5,0,3.7,2.2,6.6,6.7s4.3,8.2,4.3,11c0,2.9-0.6,5.2-1.8,7c-1.2,1.8-5,3.8-11.4,5.9c-6.4,2.1-12.5,3.9-18.4,5.3
		c-5.9,1.4-10.3,4.1-13.4,8c-3.1,4-4.6,10.5-4.6,19.5c0,9.1,1.1,16.7,3.2,22.9c2.1,6.2,4.7,10.2,7.7,12.2c3,1.9,7.1,2.9,12.5,2.9
		c13,0,21-0.4,23.8-1.3C1123.4,326.2,1125.5,325.8,1126.8,325.8z"/>
	<path style="fill:#E5E5E5;" d="M1437.2,260.8c2.1,0,4.3,0.4,6.4,1.3c2.1,0.9,3.4,1.8,3.8,2.9c1.9,6,4.5,11,7.7,15
		c1.1,1.5,1.6,3.4,1.6,5.6s-0.5,4.1-1.6,5.6c-1.1,1.5-2.3,1.9-3.8,1.3c-9.4-3.8-28.2-5.8-56.3-5.8c-5.1,0-9.4,0.1-13,0.2
		c-3.5,0.1-5.8,0.4-6.7,0.8c-1,0.4-1.7,1.1-2.2,1.9c-0.5,0.9-0.9,2.8-1,5.8c-0.1,3-0.2,6.8-0.2,11.5c0,24.1-0.4,38.8-1.3,44
		c-0.9,5.2-1.3,10.6-1.3,16s0.4,11.4,1.1,17.9c0.7,6.5,1.1,10,1.1,10.4c0,3.8-1.3,5.8-3.8,5.8c-0.9,0-1.7-0.1-2.6-0.3
		c-11.9-3.2-25.2-6.3-39.7-9.4c-14.5-3.1-25-7.6-31.4-13.4c-6.4-5.9-9.6-9.3-9.6-10.4c0-1.1,0.7-1.6,2.1-1.6c1.4,0,3.7,0.3,6.9,1
		c10.7,2.1,22.6,3.2,35.8,3.2c7.5,0,12.3-1,14.6-2.9c2.2-1.9,3.6-5.9,4.2-12c0.5-6.1,0.8-13.2,0.8-21.4c0-8.2-0.3-16.8-0.8-25.9
		c-0.5-9.1-1-14.1-1.4-15.2c-0.4-1.1-1.3-1.9-2.6-2.6c-1.3-0.6-2.6-1-4-1c-1.4,0-5.7,0.4-12.8,1.1c-7.1,0.8-13.1,1.6-17.8,2.6
		c-4.7,1-8.3,1.7-10.9,2.1c-2.6,0.4-3.8,1.2-3.8,2.2c0,1.1,0.3,1.8,1,2.2c7.5,4.7,11.2,9,11.2,12.8s-1.9,9.5-5.8,17
		c-3.8,7.5-6.8,11.2-8.8,11.2c-2,0-3.4-1.5-4-4.5c-2.1-9.2-5.7-17.3-10.6-24.3c-1.3-1.9-2.8-4.6-4.5-8.2c-1.7-3.5-5.2-5.3-10.4-5.3
		c-5.2,0-13.7,1-25.4,3c-11.7,2-19.7,4.6-24,7.8c-0.9,0.9-1.9,1.3-3.2,1.3c-1.3,0-2.7-2.5-4.3-7.4c-1.6-4.9-2.4-8-2.4-9.3
		c0-1.3,1.4-2,4.2-2.2c4.5,0,12.7-1.6,24.6-4.8c3.6-0.9,13.3-2.2,29-4.2c15.7-1.9,28.5-4.4,38.6-7.4c10-3,22.9-5.2,38.7-6.7
		c2.8-0.2,4.6-0.8,5.4-1.9c0.9-1.1,1.3-2.9,1.3-5.4l0.3-7.7c0-3.6-2.4-5.4-7-5.4c-1.7,0-6.2,0.9-13.4,2.7
		c-7.3,1.8-13.1,2.7-17.4,2.7c-4.4,0-9.2-2-14.4-6.1c-5.2-4-9.2-8-11.8-12c-2.7-3.9-4-8.5-4-13.6s0.5-11.6,1.6-19.4
		c1.1-7.8,1.6-15.3,1.6-22.6c0-7.3-0.7-13.3-2.1-18.2c-1.4-4.9-2.1-8.1-2.1-9.6c0-1.5,0.7-2.6,2.1-3.4c1.4-0.7,4-1.1,7.8-1.1
		c10.9,0,19.3-1.1,25.3-3.2c14.5-5.3,26.7-8,36.6-8s18.7,1.9,26.4,5.8c7.7,3.8,11.5,6.9,11.5,9.3c0,1.3-1.1,3.3-3.2,5.9
		c-2.1,2.7-4.8,5.3-8,7.8c-3.2,2.6-5.7,5.2-7.4,8c-1.7,2.8-2.6,6.5-2.6,11.2l0.3,8c0,3.2-2.8,5.2-8.3,6.1c-10.9,1.7-21.2,3.9-31,6.6
		c-9.8,2.7-17.8,4.4-24,5.3c-4.1,0.4-6.1,3.5-6.1,9.3c0,4.3,1.1,7.4,3.2,9.3c2.1,1.9,6.3,2.9,12.5,2.9c6.2,0,18-0.9,35.4-2.7
		c17.4-1.8,28.3-5.1,32.8-9.8c4.5-4.7,7.3-12.7,8.3-24c0.4-3.8,1.2-5.8,2.2-5.8c1.1,0,2.2,1.7,3.4,5.1c1.2,3.4,3,10.4,5.6,21
		c2.6,10.6,3.8,16.9,3.8,18.9c0,2-0.8,3.6-2.2,4.8c-1.5,1.2-4.6,2.4-9.4,3.7c-4.8,1.3-9.8,2.1-14.9,2.6c-3.8,0.6-5.8,3.2-5.8,7.7
		s0.5,7.7,1.4,9.8c1,2,2.7,3,5.3,3l24-0.6c4.5,0,10.3-0.4,17.6-1.3c7.3-0.8,11.8-1.5,13.6-2.1
		C1434.7,261.1,1436.1,260.8,1437.2,260.8z M1306.3,188.5c1.3,0,6.7-1.2,16.3-3.7c9.6-2.4,15.6-5.7,17.9-9.8c2.3-4,3.5-7.1,3.5-9.1
		c0-2-0.7-3.7-2.1-5c-1.4-1.3-3.3-1.9-5.6-1.9c-2.3,0-8.6,1.2-18.9,3.7c-10.2,2.5-15.5,4.9-15.7,7.4c-0.2,2.5-0.3,7.3-0.3,14.6
		C1301.5,187.2,1303.1,188.5,1306.3,188.5z"/>
	<path style="fill:#E5E5E5;" d="M1779.3,303c2.1,0,5,5.5,8.6,16.6c3.6,11.1,6.2,26.8,7.7,47c0.4,5.1,1,9.5,1.8,13.1
		c0.7,3.6,1.1,6.3,1.1,8.2c0,1.8-1.2,3-3.5,3.7c-2.4,0.6-10.4,1-24.2,1s-24-1.1-30.6-3.4c-6.6-2.2-13.3-5.8-20-10.6
		c-6.7-4.8-11.8-12-15.2-21.6c-3.4-9.6-5.1-20.4-5.1-32.3c0-11.9,0.4-21.4,1.3-28.5c0.9-7,1.3-11.4,1.3-13.1c0-4.7-1-7-2.9-7
		s-4.8,1.4-8.5,4.3c-3.7,2.9-6.7,6.8-9,11.8c-2.2,5-3.6,10.1-4.2,15.4c-0.5,5.2-0.8,12.8-0.8,22.6c0,4.3-1.5,8.5-4.6,12.6
		c-3.1,4.2-7.3,8.1-12.5,11.8c-5.2,3.7-10.5,6.2-15.7,7.5c-5.2,1.3-8.4,2.4-9.6,3.4c-1.2,1-1.8,2.2-1.8,3.8c0,1.6,0.3,3.6,0.8,6.1
		c0.5,2.5,0.8,4.4,0.8,5.9c0,3-0.9,4.5-2.7,4.5c-1.8,0-5.1-1.1-9.8-3.4c-4.7-2.2-10.4-4.5-17.1-6.9c-6.7-2.3-12.8-6-18.2-10.9
		c-5.4-4.9-8.2-8-8.2-9.3c0-1.3,0.7-1.9,2.2-1.9c1.5,0,5.2,0.6,11.2,1.8c6,1.2,10.7,1.8,14.1,1.8c3.4,0,5.7-0.9,6.7-2.6
		c1.1-1.7,1.5-4.3,1.4-7.8c-0.1-3.5-0.2-8.4-0.2-14.6l0.3-43.5c0-3.4-0.3-5.7-1-6.7c-0.6-1.1-1.8-1.6-3.4-1.6
		c-1.6,0-4.4,0.6-8.5,1.8c-4.1,1.2-6.1,2.4-6.1,3.7c0,1.3,0.5,2.6,1.6,3.8c5.5,6.8,8.3,12.2,8.3,16.2c0,4-2.6,8.1-7.8,12.3
		c-5.2,4.3-9,6.4-11.2,6.4s-3.4-1.5-3.4-4.5c0-1.1,0.3-2.9,1-5.6c0.6-2.7,1-6.6,1-11.7c0-8.7-1.5-13.1-4.5-13.1c-3,0-5.2,2-6.6,5.9
		c-1.4,4-2.5,6.8-3.4,8.5c-5.3,11.3-8,20.1-8,26.2c0,2.1,0.3,4.1,0.8,5.9c0.5,1.8,0.8,3.8,0.8,6.1s-1.6,5.1-4.8,8.5l-10.9,12.8
		c-4.3,4.9-9.1,7.9-14.4,9c-5.3,1.1-9.2,1.6-11.5,1.6c-2.3,0-3.5-0.6-3.5-1.8c0-1.2,1.1-2.9,3.2-5.3c14.3-16.4,23.6-31,28-43.7
		c4.4-12.7,6.6-20.7,6.6-24.2c0-1.9-1.1-2.9-3.2-2.9c-2.1,0-7.5,1.3-16.2,3.8s-14.6,5.2-17.8,8c-1.7,1.5-3.5,2.2-5.4,2.2
		s-4.2-2.3-6.7-6.9c-2.6-4.6-3.8-7.8-3.8-9.6c0-1.8,0.3-2.9,1-3.2c0.6-0.3,1.9-0.5,3.8-0.5c4.7,0,11.5-2.1,20.3-6.2
		c8.8-4.2,16.1-7.1,21.8-8.8c5.7-1.7,8.8-3.4,9.4-5c0.6-1.6,1.2-5.4,1.6-11.4c0.4-6,0.6-11.7,0.6-17.1c0-5.4-0.3-10.2-1-14.2
		c-0.6-4-1-7.3-1-9.6c0-2.3,0.7-4.3,2.2-5.8c1.5-1.5,5.1-2.7,10.9-3.7s17-4.7,33.6-11.4c3.4-1.3,7.7-1.9,12.8-1.9s10.9,0.9,17.3,2.6
		c6.4,1.7,9.6,3.8,9.6,6.4s-1.6,5.2-4.8,8c-1.7,1.3-3,5.1-4,11.5c-1,6.4-2.2,23.8-3.7,52.3c-1.5,28.5-2.2,52.3-2.2,71.5
		c0,4.5,0.7,6.7,2.2,6.7c2.8,0,8.2-4.8,16.3-14.4c8.1-9.6,12.2-24,12.2-43.2c0-8.1-0.5-14.2-1.4-18.2c-1-4.1-1.4-6.8-1.4-8.3
		c0-1.5,0.4-2.6,1.1-3.4c0.7-0.7,2.9-1.5,6.4-2.2c3.5-0.7,8.2-2.3,13.9-4.6c12.2-5.1,25.1-7.7,38.7-7.7c11.5,0,17.3,2.3,17.3,7
		c0,2.3-1.7,5.4-5.1,9.1c-3.4,3.7-5.9,7.5-7.4,11.2c-1.5,3.7-3.2,12.5-5,26.4c-1.8,13.9-2.7,23.6-2.7,29.1
		c0,21.1,12.1,31.7,36.2,31.7c6.2,0,10.7-1.2,13.6-3.5c2.9-2.4,5-7.1,6.4-14.4c1.4-7.3,2.4-19,3-35.2
		C1776.8,306.6,1777.8,303,1779.3,303z M1617.7,172.5l-32.6,22.7c-6.6,4.7-12.9,7-18.9,7c-1.9,0-2.9-1-2.9-2.9s2.1-5.2,6.2-9.8
		c4.2-4.6,9.4-11.2,15.7-19.8c6.3-8.6,11.1-15.7,14.6-21.1c3.4-5.4,6.3-8.2,8.8-8.2c2.5,0,5.8,3,9.9,9.1s6.2,10.6,6.2,13.4
		S1622.4,169.1,1617.7,172.5z M1583.4,266.6c1.9,0,6.7-1,14.2-3c7.6-2,12.2-3.6,13.8-4.8c1.6-1.2,2.6-2.8,3-5
		c0.4-2.1,0.7-6.4,1-12.8l0.3-17.9c0-5.3-0.5-8.7-1.4-10.2c-1-1.5-3-2.2-6.2-2.2c-8.8,0-15.2,1.8-19.4,5.4c-4.2,3.6-6.2,6.4-6.2,8.3
		c0,1.9,3,3.1,9.1,3.5c6.1,0.4,10.1,1.3,12,2.7c1.9,1.4,2.9,3,2.9,5c0,1.9-0.5,3.7-1.4,5.3c-1,1.6-2.2,5-3.7,10.1
		c-0.6,2.6-2.1,3.8-4.3,3.8c-2.2,0-4-1.8-5.3-5.3c-1.3-3.5-2.9-6.2-5-8.2c-2-1.9-3.7-2.9-5.1-2.9c-1.4,0-2.1,2.3-2.1,7l0.3,14.7
		c0,2.8,0.3,4.5,0.8,5.3C1581.2,266.2,1582.1,266.6,1583.4,266.6z M1742.8,194.9c3.8,0,6.5,1.8,7.8,5.4c1.4,3.6,4.1,8.8,8.2,15.4
		c1.3,1.9,1.9,3.7,1.9,5.4c0,3-1.5,4.5-4.5,4.5l-7-0.3c-12.2,0-20.6,0.9-25.3,2.6c-9,3.4-19.2,5.9-30.7,7.4
		c-4.3,0.6-9.4,1.9-15.4,3.7c-6,1.8-10.2,3.6-12.6,5.4c-2.5,1.8-4.5,2.7-6.2,2.7c-3.6,0-6.5-3.1-8.6-9.4c-2.1-6.3-3.2-10.7-3.2-13.1
		c0-2.5,0.6-4.2,1.9-5.1c1.3-1,3.9-1.6,8-2.1c10.2-0.8,23.6-3.5,40.2-8c16.5-4.5,29.7-8.8,39.5-13.1
		C1738.8,195.3,1740.9,194.9,1742.8,194.9z M1719.1,171.5c0,7.9-2,11.8-6.1,11.8c-1.7,0-4.9-1-9.6-2.9c-4.7-1.9-8.4-4-11.2-6.2
		c-2.8-2.2-4.6-4.3-5.6-6.1c-1-1.8-1.4-5.8-1.4-11.8c0-6.1,1.2-11.5,3.5-16.3c2.3-4.8,4.6-7.2,6.9-7.2s3.7,1.2,4.3,3.5
		c0.6,2.4,4,6.2,10.1,11.5C1716.1,153.2,1719.1,161.1,1719.1,171.5z"/>
</g>
</svg>
