<?xml version="1.0" encoding="utf-8"?>
<!-- Generator: Adobe Illustrator 16.0.0, SVG Export Plug-In . SVG Version: 6.00 Build 0)  -->
<!DOCTYPE svg PUBLIC "-//W3C//DTD SVG 1.1//EN" "http://www.w3.org/Graphics/SVG/1.1/DTD/svg11.dtd">
<svg xmlns="http://www.w3.org/2000/svg" xmlns:xlink="http://www.w3.org/1999/xlink" version="1.1" id="图层_1" x="0px" y="0px" width="243px" height="243px" viewBox="0 0 486 486" style="enable-background:new 0 0 1878 486;" xml:space="preserve">
<line style="fill:none;stroke:#FF0000;stroke-width:16;stroke-linecap:round;stroke-miterlimit:10;" x1="410.5" y1="115.2" x2="269.1" y2="47.1"/>
<line style="fill:none;stroke:#FFFF00;stroke-width:16;stroke-linecap:round;stroke-miterlimit:10;" x1="460.8" y1="304.5" x2="360.1" y2="430.7"/>
<line style="fill:none;stroke:#00FFFF;stroke-width:16;stroke-linecap:round;stroke-miterlimit:10;" x1="161.9" y1="430.6" x2="61.2" y2="304.6"/>
<line style="fill:none;stroke:#8B00FF;stroke-width:16;stroke-linecap:round;stroke-miterlimit:10;" x1="247.1" y1="47.1" x2="105.6" y2="115.1"/>
<line style="fill:none;stroke:#0000FF;stroke-width:16;stroke-linecap:round;stroke-miterlimit:10;" x1="92.4" y1="131.6" x2="57.1" y2="286.3"/>
<line style="fill:none;stroke:#00FF00;stroke-width:16;stroke-linecap:round;stroke-miterlimit:10;" x1="339" y1="438" x2="177" y2="438"/>
<line style="fill:#FF7F00;stroke:#FF7F00;stroke-width:16;stroke-linecap:round;stroke-miterlimit:10;" x1="458.9" y1="286.3" x2="423.6" y2="131.6"/>
<path style="fill:none;stroke:#000000;stroke-width:16;stroke-miterlimit:10;" d="M243.9,47.5"/>
<g>
	<path style="fill:#E5E5E5;" d="M203,208.6c1.9-12.8,3.2-26.6,4.5-39.7h113.3l2.2,3.8c-31,61.4-58.6,125.4-86.4,188.2l-19.2,2.6   l-2.2-2.9c36.5-57.6,66.2-116.5,92.2-176h-68.2c-21.8,0-23.4,2.2-31,24H203z"/>	
</g>
</svg>
