<svg xmlns="http://www.w3.org/2000/svg" width="161" height="90"><path fill="none" stroke="#000" stroke-width="2" stroke-miterlimit="10" d="M46.4 27.85L30 19.95m21.5 29.699L39.8 64.25m-22.2 0L5.9 49.649M27.4 19.95l-16.3 7.8m-1.6 2l-4.1 17.8M19 66.05h19m14-18.5l-4.1-17.9"/><path fill="none" stroke="red" stroke-width="2" stroke-linecap="round" stroke-miterlimit="10" d="M46.4 27.85L30 19.95"/><path fill="none" stroke="#FF0" stroke-width="2" stroke-linecap="round" stroke-miterlimit="10" d="M51.5 49.649L39.8 64.25"/><path fill="none" stroke="#0FF" stroke-width="2" stroke-linecap="round" stroke-miterlimit="10" d="M17.6 64.25L5.9 49.649"/><path fill="none" stroke="#8B00FF" stroke-width="2" stroke-linecap="round" stroke-miterlimit="10" d="M27.4 19.95l-16.3 7.8"/><path fill="none" stroke="#00F" stroke-width="2" stroke-linecap="round" stroke-miterlimit="10" d="M9.5 29.75l-4.1 17.8"/><path fill="none" stroke="#0F0" stroke-width="2" stroke-linecap="round" stroke-miterlimit="10" d="M38 66.05H19"/><path fill="#FF7F00" stroke="#FF7F00" stroke-width="2" stroke-linecap="round" stroke-miterlimit="10" d="M52 47.55l-4.1-17.9"/><path fill="#666" d="M25.6 33.75h9.7c.7 0 1.5-.1 2.4-.4.3 0 .5-.1.6-.199.8.699 1.5 1.699 2 3.199 0 .5-.1.7-.2.601-.4.1-.8.3-1.2.399-5.4 7-8.9 14.101-10.3 21.2 0 .7-.2 1.1-.6 1.2-.8.7-1.7 1-2.8 1-.7 0-.9-.4-.8-1.2 1.5-5.3 5.5-13 12.1-23v-.4c-1.9-.4-4.8-.5-8.7-.4-3.4.4-6.6.9-9.5 1.6-.3 0-.4-.1-.4-.399.1-1.9.7-3.2 1.8-4 .1 0 .3.1.4.2.1.1.3.199.4.199.8.3 2.5.4 5.1.4zM61.2 46.85c.7-8.6 3.9-13.399 9.6-14.5.2 0 .5-.1.9-.399.3-.4.6-.601.9-.601.3 0 .7.2 1.2.601.1.1.2.2.4.2 5 .899 8 5.3 9 13.1.2 6.1-1 10.2-3.7 12.5 1.2 1.5 3.1 2.399 5.9 2.8v.2c-1.301.8-2.601 1.399-4 1.8-.4 0-.601-.1-.7-.2-.5-.5-1.5-1.6-3.1-3.2-1.4.9-3.2 1.5-5.6 1.601-6.9-.302-10.5-4.902-10.8-13.902zm16.2 9.299c2.6-1.8 3.8-5.399 3.7-10.699-.899-6.5-3.7-10-8.5-10.5-5.6.8-8.6 4.8-9.1 11.899.1 6.601 2.9 10.4 8.5 11.3 2-.1 3.2-.5 3.7-1-1.2-.899-2.4-1.899-3.7-2.8-.2-.3-.3-.5-.3-.8-.1-1.5.5-2.4 1.9-3 .1.1.2.2.3.2-.4 1.4.7 3.201 3.5 5.4zM88.9 36.35c-1.2 0-1.801-.899-1.801-2.6s.601-2.6 1.801-2.8c1.1.3 1.699 1.2 1.899 2.8-.099 1.7-.799 2.6-1.899 2.6zm-1.5 3.1c.1-.5.3-.9.699-1 1.101.3 1.9.899 2.5 2v.8c-.1.4-.199 1.6-.3 3.6-.1 2.101-.1 4-.1 5.8 0 1.601.1 3.9.399 6.9.101 1.7-.399 2.8-1.5 3.2-.8-.101-1.199-.7-1.3-1.8 0-.101 0-1 .101-2.601.1-2.8.199-4.7.3-5.8.001-4.799-.299-8.499-.799-11.099zm10 1c-.101.899-.2 1.8-.301 2.6 2.101-2.899 4.5-4.5 7.2-4.8 4.5.3 6.9 3.4 7.101 9.5 0 3.7 0 7.3.1 10.899-.1 1.101-.7 1.7-1.8 1.801-.5.1-.7-.101-.7-.801v-3.6c.1-2.2.2-5 .3-8.3-.1-4.4-1.8-6.8-5-7.3-3.2.399-5.6 2.3-7.1 5.6-.101 2.5-.101 6.1.1 10.7 0 .7 0 1.1.101 1.399 0 1.5-.7 2.301-2.2 2.4-.3.1-.4-.1-.4-.6.099-1.098.099-2.598.099-4.799.1-1.699.1-4.399.1-7.899 0-1.3-.2-3.2-.6-5.6v-1c-.101-1.101.199-1.7 1-2 1.3.2 1.9.8 2 1.8zm16.5 18.9c1.1-1.8 3.1-4.399 6-7.7 2.1-2.199 3.5-4 4.399-5.199-1-2-3.1-4.601-6.3-7.9-.7-.8-1.1-1.3-1.2-1.6-.3-.5-.399-1.2-.399-2 0-1.2.6-2.101 1.8-2.8.2.1.3.3.399.399v.2c.2.9.5 1.6.9 2 2.1 3.4 3.9 6.4 5.6 8.899.301.5.5.9.7 1 2.3-2.6 4.4-5.899 6.3-9.699l.101-.4c.6-1.7 1.3-2.6 2.1-2.6h.101c.3 0 .5.2.699.6.2.7.301 1.7.4 3-.1.8-.3 1.4-.6 1.8-.301.4-1.601 1.9-4 4.601-2 2.199-3.2 3.6-3.7 4.199 4.2 6.9 7.8 11 10.8 12.301v1c-1.1.899-2.3 1.399-3.5 1.399-.9 0-1.5-.399-1.9-1.2-2.6-5-4.899-9-6.899-11.899-.4.5-1.601 2.399-3.7 5.8-2.5 3.8-3.8 5.9-4 6.1-.3.5-.6.801-.9.801-.199 0-.5.1-.899.199-1 .101-1.7.101-2.101-.199-.101-.402-.301-.702-.201-1.102zm27-19.3c-.2-4.8 2.199-7.2 7.199-7.3.4 0 1.4.2 3.101.6 2.399.4 4 .5 5 .2.1 0 .3-.1.7-.399.199-.101.3-.301.399-.4.101.1.2.3.3.6-.1 2.2-.699 3.4-1.8 3.601-.3 0-1.1-.2-2.5-.601-2.6-.899-4.3-1.399-5.3-1.399-3.3.1-5 1.8-5 5 .3 2.899 2.5 4.399 6.6 4.6 6.301.1 9.5 2.6 9.7 7.5.101 5.8-3 8.7-9.3 8.7-7.5-.3-11-2.9-10.8-7.9l.399-.2c0 .101.101.301.4.601 2.8 3.3 6.1 5 9.9 5 4.399 0 6.699-2 6.8-6.101-.101-3.199-2.5-4.8-7.2-5C144 47.05 141 44.75 140.9 40.05z"/></svg>