<svg xmlns="http://www.w3.org/2000/svg" width="161" height="90"><path fill="none" stroke="#00F" stroke-width="2" stroke-linecap="round" stroke-miterlimit="10" d="M6.394 30.094L2.4 47.432"/><path fill="none" stroke="red" stroke-width="2" stroke-linecap="round" stroke-miterlimit="10" d="M42.334 28.244L26.36 20.55"/><path fill="none" stroke="#FF0" stroke-width="2" stroke-linecap="round" stroke-miterlimit="10" d="M47.302 49.476L35.906 63.697"/><path fill="none" stroke="#0FF" stroke-width="2" stroke-linecap="round" stroke-miterlimit="10" d="M14.283 63.697L2.887 49.476"/><path fill="none" stroke="#8B00FF" stroke-width="2" stroke-linecap="round" stroke-miterlimit="10" d="M23.828 20.549L7.952 28.146"/><path fill="none" stroke="#0F0" stroke-width="2" stroke-linecap="round" stroke-miterlimit="10" d="M34.153 65.451H15.646"/><path fill="#FF7F00" stroke="#FF7F00" stroke-width="2" stroke-linecap="round" stroke-miterlimit="10" d="M47.789 47.432l-3.994-17.435"/><path fill="#666" d="M22.4 34.791h8.062c.583 0 1.246-.084 1.997-.336.248 0 .416-.084.498-.167.665.586 1.248 1.426 1.663 2.685 0 .419-.084.587-.168.504-.332.083-.663.252-.997.335-4.49 5.874-7.397 11.833-8.562 17.79 0 .587-.166.923-.5 1.006-.663.587-1.413.84-2.327.84-.58 0-.748-.336-.664-1.007 1.246-4.447 4.572-10.909 10.06-19.301v-.336c-1.583-.335-3.991-.42-7.233-.335-2.827.335-5.486.755-7.898 1.343-.249 0-.331-.083-.331-.335.082-1.595.58-2.686 1.495-3.356.082 0 .249.083.333.167.083.083.249.167.331.167.666.251 2.078.336 4.241.336zm36.119 10.991c.723-8.98 4.033-13.991 9.93-15.141.207 0 .516-.105.93-.417.31-.418.621-.628.93-.628.313 0 .727.209 1.242.628.104.104.207.209.415.209 5.171.938 8.277 5.535 9.309 13.68.207 6.37-1.032 10.651-3.826 13.053 1.243 1.567 3.207 2.506 6.104 2.925v.209c-1.344.836-2.694 1.461-4.138 1.879-.414 0-.623-.103-.722-.206-.52-.524-1.555-1.673-3.208-3.344-1.45.939-3.311 1.565-5.794 1.673-7.14-.317-10.864-5.12-11.172-14.52zm16.756 9.712c2.689-1.88 3.933-5.638 3.826-11.173-.928-6.789-3.826-10.443-8.792-10.965-5.792.835-8.895 5.012-9.414 12.426.104 6.893 3 10.858 8.793 11.799 2.069-.104 3.313-.521 3.829-1.043-1.243-.938-2.482-1.983-3.829-2.924-.205-.315-.31-.521-.31-.837-.102-1.565.517-2.504 1.966-3.133.105.104.207.21.31.21-.412 1.462.726 3.343 3.621 5.64zm11.897-20.676c-1.243 0-1.861-.938-1.861-2.715s.618-2.715 1.861-2.924c1.136.313 1.761 1.253 1.962 2.924-.103 1.775-.826 2.715-1.962 2.715zm-1.552 3.237c.104-.522.309-.94.722-1.044 1.138.313 1.964.939 2.591 2.089v.835c-.107.417-.21 1.67-.318 3.76-.097 2.192-.097 4.176-.097 6.056 0 1.671.097 4.072.412 7.204.1 1.776-.412 2.926-1.553 3.343-.827-.107-1.242-.731-1.348-1.881 0-.104 0-1.043.105-2.716.101-2.925.203-4.909.311-6.058.002-5.009-.306-8.873-.825-11.588zM95.968 39.1c-.108.938-.211 1.878-.317 2.714 2.178-3.028 4.663-4.699 7.447-5.013 4.659.313 7.14 3.55 7.354 9.92 0 3.865 0 7.624.097 11.383-.097 1.149-.723 1.776-1.86 1.881-.52.104-.723-.104-.723-.837v-3.761c.105-2.295.203-5.222.309-8.668-.105-4.593-1.859-7.1-5.174-7.622-3.307.416-5.791 2.402-7.343 5.847-.106 2.611-.106 6.372.104 11.175 0 .731 0 1.15.106 1.46 0 1.566-.721 2.403-2.28 2.506-.311.104-.406-.105-.406-.626.098-1.147.098-2.715.098-5.014.103-1.771.103-4.59.103-8.245 0-1.358-.202-3.343-.617-5.849v-1.043c-.107-1.15.203-1.776 1.033-2.089 1.342.21 1.962.836 2.069 1.881zm17.065 19.735c1.138-1.879 3.209-4.59 6.207-8.039a58.031 58.031 0 0 0 4.555-5.428c-1.041-2.089-3.209-4.806-6.523-8.25-.723-.835-1.138-1.358-1.243-1.67-.309-.522-.411-1.254-.411-2.089 0-1.252.625-2.194 1.868-2.924.203.104.309.313.413.416v.209c.201.939.512 1.67.925 2.088 2.178 3.551 4.036 6.684 5.796 9.294.314.521.517.939.727 1.044 2.378-2.715 4.55-6.16 6.516-10.128l.106-.418c.617-1.775 1.341-2.714 2.168-2.714h.106c.311 0 .52.209.723.626.208.731.31 1.776.414 3.133-.104.836-.309 1.463-.617 1.88-.317.418-1.659 1.984-4.142 4.805a151.42 151.42 0 0 0-3.827 4.384c4.347 7.205 8.066 11.488 11.17 12.846v1.046c-1.138.937-2.377 1.459-3.615 1.459-.935 0-1.551-.416-1.966-1.254-2.691-5.22-5.065-9.398-7.138-12.426-.415.524-1.659 2.505-3.826 6.058-2.591 3.972-3.931 6.163-4.143 6.37-.309.522-.619.838-.925.838-.21 0-.52.104-.933.209-1.032.104-1.759.104-2.17-.209-.108-.424-.32-.737-.215-1.156zm27.935-20.153c-.211-5.012 2.273-7.519 7.448-7.623.414 0 1.444.209 3.206.627 2.479.417 4.137.521 5.169.208.105 0 .313-.104.729-.416.205-.105.313-.314.406-.417.108.104.211.313.318.627-.107 2.296-.725 3.55-1.87 3.76-.309 0-1.138-.209-2.582-.628-2.689-.938-4.452-1.461-5.483-1.461-3.411.104-5.174 1.88-5.174 5.221.309 3.027 2.589 4.595 6.832 4.804 6.516.104 9.828 2.715 10.03 7.833.107 6.057-3.103 9.085-9.616 9.085-7.762-.313-11.381-3.028-11.179-8.25l.412-.209c0 .107.108.315.416.63 2.899 3.446 6.31 5.221 10.242 5.221 4.547 0 6.928-2.089 7.033-6.372-.105-3.341-2.586-5.015-7.447-5.222-5.685-.108-8.789-2.511-8.89-7.418z"/></svg>